<svg xmlns="http://www.w3.org/2000/svg" width="505" height="140" version="1.1" viewBox="0 0 505 140"><mask id="mask"><rect width="100%" height="100%" x="0" y="0" fill="#fff"/><path d="m10 0 l30 0 l50 60 l-50 60 l-30 0 l50 -60"/></mask><rect width="100%" height="100%" x="0" y="0" fill="#2D2E2C"/><g><path fill="#5DA5D5" d="m130 0 l-30 0 l-50 60 l50 60 l30 0 l-50 -60" mask="url(#mask)" transform="translate(10,10)"/><path fill="#FFF" d="m0 0 l30 0 l50 60 l-50 60 l-30 0 l50 -60" transform="translate(10,10)"/><text x="120" y="66" fill="#FFF" alignment-baseline="middle" font-family="Source Code Pro" font-size="75" transform="translate(10,10)">term.js</text><path fill="#FFF" d="m440 20 l45 0 l0 80 l-45 0" transform="translate(10,10)"/></g></svg>